<svg xmlns="http://www.w3.org/2000/svg" version="1.1" xmlns:xlink="http://www.w3.org/1999/xlink" xmlns:svgjs="http://svgjs.dev/svgjs" width="1000" height="750" viewBox="0 0 1000 750"><rect width="1000" height="750" fill="#ffffff"></rect><g transform="matrix(0.834,0,0,0.834,82.49454545454546,115.4193570850203)"><svg viewBox="0 0 396 247" data-background-color="#ffffff" preserveAspectRatio="xMidYMid meet" height="623" width="1000" xmlns="http://www.w3.org/2000/svg" xmlns:xlink="http://www.w3.org/1999/xlink"><g id="tight-bounds" transform="matrix(1,0,0,1,0.2400000000000091,-0.09999999999999432)"><svg viewBox="0 0 395.52 247.2" height="247.2" width="395.52"><g><svg></svg></g><g><svg viewBox="0 0 395.52 247.2" height="247.2" width="395.52"><g transform="matrix(1,0,0,1,75.54432,90.55388485549133)"><svg viewBox="0 0 244.43135999999998 66.09223028901734" height="66.09223028901734" width="244.43135999999998"><g><svg viewBox="0 0 244.43135999999998 66.09223028901734" height="66.09223028901734" width="244.43135999999998"><g><svg viewBox="0 0 244.43135999999998 66.09223028901734" height="66.09223028901734" width="244.43135999999998"><g><svg viewBox="0 0 244.43135999999998 66.09223028901734" height="66.09223028901734" width="244.43135999999998"><g id="textblocktransform"><svg viewBox="0 0 244.43135999999998 66.09223028901734" height="66.09223028901734" width="244.43135999999998" id="textblock"><g><svg viewBox="0 0 244.43135999999998 66.09223028901734" height="66.09223028901734" width="244.43135999999998"><g transform="matrix(1,0,0,1,0,0)"><svg width="244.43135999999998" viewBox="1.58 -31.08 116.76 31.58" height="66.09223028901734" data-palette-color="#9220ec"><path d="M10 0.5L10 0.5Q7.08 0.5 5-0.15 2.93-0.8 1.58-1.53L1.58-1.53 2.13-6.28Q3.4-5.4 5.36-4.59 7.33-3.78 9.8-3.78L9.8-3.78Q11.95-3.78 13.09-4.49 14.23-5.2 14.23-6.6L14.23-6.6Q14.23-7.75 13.55-8.46 12.88-9.18 11.78-9.65 10.68-10.13 9.45-10.53L9.45-10.53Q7.53-11.15 5.81-11.98 4.1-12.8 3.04-14.19 1.98-15.58 1.98-17.88L1.98-17.88Q1.98-19.88 2.98-21.55 3.98-23.23 6.01-24.21 8.05-25.2 11.2-25.2L11.2-25.2Q13.6-25.2 15.29-24.69 16.98-24.18 18.3-23.48L18.3-23.48 17.75-18.85Q16.43-19.88 14.89-20.56 13.35-21.25 11.3-21.25L11.3-21.25Q9.4-21.25 8.28-20.51 7.15-19.78 7.15-18.28L7.15-18.28Q7.15-16.68 8.47-15.95 9.8-15.23 12.6-14.28L12.6-14.28Q13.88-13.85 15.1-13.26 16.32-12.68 17.34-11.85 18.35-11.03 18.95-9.8 19.55-8.58 19.55-6.88L19.55-6.88Q19.55-4.93 18.61-3.25 17.68-1.58 15.59-0.54 13.5 0.5 10 0.5ZM34.85 0.5L34.85 0.5Q30.92 0.5 28.14-1.24 25.35-2.98 23.89-5.89 22.42-8.8 22.42-12.33L22.42-12.33Q22.42-15.88 23.89-18.8 25.35-21.73 28.14-23.46 30.92-25.2 34.85-25.2L34.85-25.2Q38.8-25.2 41.59-23.46 44.37-21.73 45.84-18.8 47.3-15.88 47.3-12.33L47.3-12.33Q47.3-8.8 45.84-5.89 44.37-2.98 41.59-1.24 38.8 0.5 34.85 0.5ZM34.85-3.98L34.85-3.98Q38.3-3.98 40.14-6.23 41.97-8.47 41.97-12.33L41.97-12.33Q41.97-16.2 40.14-18.48 38.3-20.75 34.85-20.75L34.85-20.75Q31.45-20.75 29.6-18.48 27.75-16.2 27.75-12.33L27.75-12.33Q27.75-8.47 29.6-6.23 31.45-3.98 34.85-3.98ZM57.02 0L51.8 0 51.8-24.7 56.27-24.7 56.9-20.03 55.3-21.28Q57.32-23.38 59.52-24.28 61.72-25.18 64.12-25.18L64.12-25.18Q69.25-25.18 71.57-22.04 73.9-18.9 73.9-13.7L73.9-13.7 73.9 0 68.67 0 68.67-13.48Q68.67-17.2 67.35-18.95 66.02-20.7 62.87-20.7L62.87-20.7Q60.55-20.7 58.78-19.64 57.02-18.57 56.22-16.48L56.22-16.48 57.02-19.35 57.02 0ZM91.49 0.5L91.49 0.5Q87.07 0.5 84.09-1.29 81.12-3.08 79.61-6.04 78.09-9 78.09-12.53L78.09-12.53Q78.09-15.95 79.51-18.82 80.92-21.7 83.63-23.44 86.34-25.18 90.19-25.18L90.19-25.18Q93.47-25.18 95.87-23.85 98.27-22.53 99.56-20.15 100.84-17.78 100.84-14.6L100.84-14.6Q100.84-13.95 100.78-13.25 100.72-12.55 100.57-11.78L100.57-11.78 83.49-11.78Q83.82-8.85 85.04-7.14 86.27-5.43 88.09-4.7 89.92-3.98 92.04-3.98L92.04-3.98Q93.94-3.98 95.79-4.41 97.64-4.85 99.27-5.68L99.27-5.68 99.74-1.4Q98.32-0.73 96.24-0.11 94.17 0.5 91.49 0.5ZM83.79-15.35L83.79-15.35 95.49-15.35Q95.49-16.82 94.94-18.04 94.39-19.25 93.21-19.98 92.02-20.7 90.14-20.7L90.14-20.7Q87.39-20.7 85.88-19.25 84.37-17.8 83.79-15.35ZM117.82 0.5L113.59 0.5Q111.27 0.5 109.83-0.4 108.39-1.3 107.73-2.7 107.07-4.1 107.07-5.65L107.07-5.65 107.07-20.53 103.14-20.53 103.62-24.7 107.07-24.7 107.07-30.53 112.29-31.08 112.29-24.7 118.34-24.7 118.34-20.53 112.29-20.53 112.29-8.3Q112.29-6.15 112.54-5.19 112.79-4.23 113.77-3.98 114.74-3.73 116.87-3.73L116.87-3.73 118.27-3.73 117.82 0.5Z" opacity="1" transform="matrix(1,0,0,1,0,0)" fill="#9220ec" class="wordmark-text-0" data-fill-palette-color="primary" id="text-0"></path></svg></g></svg></g></svg></g></svg></g></svg></g></svg></g></svg></g><path d="M192.536 84.554L192.536 26.93 385.876 26.93 385.876 220.27 192.536 220.27 192.536 162.646 198.496 162.646 198.496 214.31 379.915 214.31 379.915 32.89 198.496 32.89 198.496 84.554Z" fill="#9220ec" stroke="transparent" data-fill-palette-color="primary"></path></svg></g><defs></defs></svg><rect width="395.52" height="247.2" fill="none" stroke="none" visibility="hidden"></rect></g></svg></g></svg>